<?xml version="1.0" encoding="UTF-8"?>
<svg xmlns="http://www.w3.org/2000/svg" viewBox="0 0 1600 900">
  <defs>
    <linearGradient id="grad" x1="0%" y1="0%" x2="100%" y2="100%">
      <stop offset="0%" stop-color="#0033CC"/>
      <stop offset="100%" stop-color="#3366FF"/>
    </linearGradient>
    <filter id="softShadow" x="-20%" y="-20%" width="140%" height="140%">
      <feDropShadow dx="0" dy="20" stdDeviation="30" flood-color="#000" flood-opacity="0.2"/>
    </filter>
  </defs>
  <rect width="1600" height="900" fill="url(#grad)"/>
  <rect x="150" y="150" width="1300" height="600" rx="50" fill="rgba(255,255,255,0.08)"/>
  <g filter="url(#softShadow)">
    <path d="M400,650 L520,450 H880 L1000,650 Z" fill="#FFFFFF" opacity="0.12"/>
    <path d="M480,450 L800,450 L900,600 L380,600 Z" fill="#FFFFFF" opacity="0.18"/>
    <path d="M550,450 L550,340 L690,340 L690,450 Z" fill="#FFFFFF" opacity="0.22"/>
    <path d="M620,340 L620,260 L710,260 L710,340 Z" fill="#FFFFFF" opacity="0.24"/>
  </g>
  <g transform="translate(360 240)">
    <rect x="0" y="0" width="880" height="520" rx="40" fill="#ffffff" opacity="0.08"/>
    <path d="M120 520 L120 350 L270 240 L470 240 L620 350 L620 520 Z" fill="#FFFFFF" opacity="0.15"/>
    <line x1="240" y1="240" x2="240" y2="500" stroke="#FFFFFF" stroke-width="8" opacity="0.4"/>
    <line x1="360" y1="240" x2="360" y2="500" stroke="#FFFFFF" stroke-width="8" opacity="0.4"/>
    <line x1="480" y1="240" x2="480" y2="500" stroke="#FFFFFF" stroke-width="8" opacity="0.4"/>
    <circle cx="760" cy="140" r="80" fill="#FFFFFF" opacity="0.25"/>
    <path d="M760 90 A50 50 0 1 1 759.9 90" fill="#0033CC"/>
    <path d="M745 130 L760 150 L775 130" stroke="#0033CC" stroke-width="12" fill="none" stroke-linecap="round"/>
    <text x="440" y="320" fill="#FFFFFF" font-family="Lato, sans-serif" font-size="100" font-weight="700">Encuentra</text>
    <text x="440" y="420" fill="#FFFFFF" font-family="Lato, sans-serif" font-size="50" opacity="0.8">La casa de tus sueños</text>
  </g>
</svg>
